# xmcd
#
# Track frame offsets: 
#        150
#        9510
#        21137
#        33457
#        52042
#        65945
#        76512
#        87915
#        98902
#        112102
#        125435
#        139180
#        147362
#        159552
#        171970
#        182762
#        192890
#        202752
#        212660
#        222692
#        234740
#        243045
#        251860
#        260880
#        270767
#        280312
#        293355
#        305635
#        315600
#        326307
#        337990
#
# Disc length: 4613 seconds
#
# Revision: 0
# Processed by: cddbd v1.5.2PL0 Copyright (c) Steve Scherf et al.
# Submitted via: ExactAudioCopy v1.0b3
#
DISCID=ca12031f
DTITLE=Slim Whitman - I'm A Lonely Wanderer CD3
DYEAR=2002
DGENRE=Country
TTITLE0=Rainbow on the Rio Colorado
TTITLE1=My Wild Irish Rose
TTITLE2=Forty Shades of Green
TTITLE3=Eileen
TTITLE4=Galway Bay
TTITLE5=Dora My Darling
TTITLE6=I'll Take You Home Again, Kathleen
TTITLE7=Too Ra Loo Ra Loo Ra
TTITLE8=Gortnamona
TTITLE9=Stone Outside Don Murphy's Door
TTITLE10=Londonderry Air
TTITLE11=Peggy O'Neil
TTITLE12=Where the River Shannon Flows
TTITLE13=Maria Elena
TTITLE14=Maria Elena
TTITLE15=Tell Me Pretty Words
TTITLE16=Rose Marie
TTITLE17=Only You (And You Alone)
TTITLE18=Only You (And You Alone)
TTITLE19=It Keeps Right on A-Hurtin'
TTITLE20=You're the Reason
TTITLE21=Ramblin' Rose
TTITLE22=A Little Bitty Tear
TTITLE23=Born to Lose
TTITLE24=From a Jack to a King
TTITLE25=I'll Hold You in My Heart
TTITLE26=I Fall to Pieces
TTITLE27=I Can't Stop Loving ou
TTITLE28=No Other Arms, No Other Lips
TTITLE29=Bouquet of Roses
TTITLE30=Give Me a Hundred Reasons
EXTD=
EXTT0=
EXTT1=
EXTT2=
EXTT3=
EXTT4=
EXTT5=
EXTT6=
EXTT7=
EXTT8=
EXTT9=
EXTT10=
EXTT11=
EXTT12=
EXTT13=
EXTT14=
EXTT15=
EXTT16=
EXTT17=
EXTT18=
EXTT19=
EXTT20=
EXTT21=
EXTT22=
EXTT23=
EXTT24=
EXTT25=
EXTT26=
EXTT27=
EXTT28=
EXTT29=
EXTT30=
PLAYORDER=
